# xmcd
#
# Track frame offsets: 
#        150
#        52875
#        65525
#        81055
#        94090
#        121840
#        135723
#        152705
#        157553
#        173183
#        208308
#        219840
#
# Disc length: 3322 seconds
#
# Revision: 4
# Processed by: cddbd v1.5.2PL0 Copyright (c) Steve Scherf et al.
# Submitted via: ExactAudioCopy v0.90b4
#
DISCID=960cf80c
DTITLE=James Brown - Messing With The Blues
DYEAR=1990
DGENRE=Rhythm and Blues
TTITLE0=Don't Deceive Me (Please Don't Go)
TTITLE1=The Things That I Used To Do
TTITLE2=Need Your Love So Bad
TTITLE3=Like A Baby
TTITLE4=Honky Tonk (parts 1 and 2)
TTITLE5=Suffering With The Blues
TTITLE6=Further On Up The Road
TTITLE7=Radio Spot
TTITLE8=Talk To Me, Talk To Me
TTITLE9=Kansas City
TTITLE10=Wonder When You're Coming Home
TTITLE11=Like It Is, Like It Was (The Blues, continued...)
EXTD=
EXTT0=
EXTT1=
EXTT2=
EXTT3=
EXTT4=
EXTT5=
EXTT6=
EXTT7=
EXTT8=
EXTT9=
EXTT10=
EXTT11=
PLAYORDER=
